<?xml version="1.0" encoding="UTF-8"?>
<svg version="1.1" viewBox="0 0 86 86" xmlns="http://www.w3.org/2000/svg" xmlns:cc="http://creativecommons.org/ns#" xmlns:dc="http://purl.org/dc/elements/1.1/" xmlns:rdf="http://www.w3.org/1999/02/22-rdf-syntax-ns#" xmlns:xlink="http://www.w3.org/1999/xlink">
<defs>
<linearGradient id="c" x1="85.999" x2="12" y1="86" y2="13" gradientTransform="matrix(0 -1 -1 0 86 90)" gradientUnits="userSpaceOnUse">
<stop stop-color="#008bfc" offset="0"/>
<stop stop-color="#00e0e8" offset="1"/>
</linearGradient>
<linearGradient id="b" x1="84.311" x2="1.4425" y1="83.506" y2="1.3184" gradientUnits="userSpaceOnUse">
<stop stop-color="#008bfc" stop-opacity=".51327" offset="0"/>
<stop stop-color="#00e0e8" stop-opacity=".84808" offset="1"/>
</linearGradient>
<linearGradient id="a" x1="20.549" x2="54.705" y1="20.705" y2="58.172" gradientUnits="userSpaceOnUse">
<stop stop-color="#fff" offset="0"/>
<stop stop-color="#efefef" stop-opacity=".98039" offset=".43188"/>
<stop stop-color="#fff" stop-opacity=".95723" offset="1"/>
</linearGradient>
</defs>
<metadata>
<rdf:RDF>
<cc:Work rdf:about="">
<dc:format>image/svg+xml</dc:format>
<dc:type rdf:resource="http://purl.org/dc/dcmitype/StillImage"/>
<dc:title/>
</cc:Work>
</rdf:RDF>
</metadata>
<g transform="translate(0,-4)">
<path d="m85.7 47c0 23.583-19.118 42.7-42.7 42.7h-41.277c-0.786 0-1.423-0.63701-1.423-1.423v-82.554c0-0.78601 0.637-1.423 1.423-1.423h41.277c23.582-1e-3 42.7 19.116 42.7 42.699z" fill="url(#c)"/>
<path transform="translate(0,4)" d="m42.334 11.002c-7.5484 0-14.619 2.7311-19.975 7.8184l-1.5879-2.9434 2.457-4.7988h-2.7246l-0.5625 1.5703c-0.1777 0.44424-0.38448 0.97767-0.5918 1.5996h-0.058593c-0.26654-0.62194-0.47433-1.1554-0.68164-1.5996l-0.65234-1.5703h-2.8418l2.457 4.6797-1.4824 2.8145h-3.6172v-7.4941h-2.5469v9.627h6.1895 1.5762l0.71094-1.7188c0.20731-0.50347 0.41378-1.0073 0.62109-1.5996h0.058593c0.23693 0.59232 0.44471 1.0961 0.68164 1.5996l0.76953 1.7188h0.015625c-4.9155 5.611-7.9863 13.516-7.9863 23.355 0 21.169 13.338 32.285 29.287 32.285 8.2161 0 15.177-3.1897 20.396-9.2793l-7.541-8.8945c-3.0931 3.2865-7.1524 5.8965-12.275 5.8965-9.2794 0-15.271-7.5397-15.271-20.492 0-12.663 6.8621-20.299 15.465-20.299 4.543 0 7.9254 2.1275 11.115 5.0273l7.541-9.0859c-4.2531-4.3497-10.826-8.2168-18.945-8.2168z" fill="url(#a)" stroke="url(#b)" stroke-width="4.9134" style="font-feature-settings:normal;font-variant-caps:normal;font-variant-ligatures:normal;font-variant-numeric:normal;paint-order:stroke markers fill"/>
<path d="m45.05 43.642c-1.7504 0.08361-3.7374 0.55387-5.8774 1.7062-5.9263 3.0729-5.2644 9.6577-4.1669 23.047 0 0.87797-0.22121 1.9771-0.66019 2.8551-0.40781 0.91757-2.2575 6.5373-2.5093 7.5264 2.5336 0.76704 4.4427 1.1839 6.347 1.3737 0.14164-1.6001-1.2768-6.8814-1.2056-8.0213 0-1.5364 0.22292-3.0738 0.22292-4.1712-0.87797-0.87797 14.486-3.0746 15.364-0.66019 0.15553 0.62214 1.7152 5.421 3.3734 9.2194 2.8873-1.7814 5.5797-4.414 6.3216-5.4373-1.483-2.0028-4.2045-4.7281-4.5795-6.6358-1.1566-7.1591 1.0038-12.238-2.4833-16.678-3.4871-4.4397-7.0524-4.2308-10.147-4.124z" stroke-width="2.1949"/>
<ellipse cx="38.955" cy="59.836" rx="2.8534" ry="4.3898" fill="#f2f2f2" stroke-width="2.1949"/>
<ellipse cx="48.832" cy="59.617" rx="3.7314" ry="5.0483" fill="#f2f2f2" stroke-width="2.1949"/>
<ellipse transform="rotate(262.8)" cx="-64.747" cy="31.151" rx="2.6339" ry="1.5364" fill="#333" stroke-width="2.1949"/>
<ellipse cx="48.613" cy="60.495" rx="2.1949" ry="2.8534" fill="#333" stroke-width="2.1949"/>
<path d="m37.857 69.713c-1.317-0.87797-2.4144-1.7559-2.4144-3.0729 0-1.317 0.87797-1.7559 2.1949-2.8534 0.21949-0.21949 2.6339-2.4144 5.0483-2.4144s5.2678 1.5364 6.3653 1.9754c1.9754 0.43899 3.9509 0.87797 3.7314 2.4144-0.21949 2.1949-0.43898 2.6339-2.6339 3.7314-1.5364 0.43898-4.3898 2.8534-6.3653 2.8534-0.87797 0-2.1949 0-3.0729-0.21949-0.65848-0.21949-1.7559-1.317-2.8534-2.4144z" fill="#ffc107" stroke-width="2.1949"/>
<path d="m37.418 67.957c1.2046 1.0203 2.4603 1.5476 3.8918 1.5364 0.91618 0.01607 1.8448-3.61e-4 2.7244-0.28937 0.96069-0.25902 1.8179-0.7591 2.7199-1.178 1.5645-0.87026 3.0902-1.6492 4.3375-2.6824-0.03448-0.60588-0.98155-0.20332-1.3272 1e-3 -1.1087 0.55876-2.1116 1.3045-3.2445 1.819-0.85394 0.40918-1.6939 0.84822-2.5927 1.1523-1.3866 0.36668-3.2146 0.5286-4.4063 0.05959-1.2555-0.38004-2.2558-1.2408-3.2003-1.955-0.67118 0.07178 0.31074 0.64278 0.44782 0.88681l0.64963 0.64963z" fill="#634703" stroke-width="2.1949"/>
<path d="m44.003 63.128c0.21949 0.43898 0.65847 0.43898 0.87797 0.65848 0.21949 0.21949 0.43898 0.21949 0.43898 0.21949 0.21949-0.21949 0-0.65848-0.21949-0.65848 0-0.43898-1.0975-0.43898-1.0975-0.21949z" fill="#634703" stroke-width="2.1949"/>
<path d="m40.491 63.567c0 0.21949 0.43899 0.43898 0.43899 0.21949 0.21949-0.21949 0.43898-0.43899 0.65847-0.43899 0.43899-0.21949 0.21949-0.43898-0.43898-0.43898-0.43898 0.21949-0.43898 0.43898-0.65848 0.65848z" fill="#634703" stroke-width="2.1949"/>
</g>
</svg>
